<svg id="SvgjsSvg1001" width="288" height="288" xmlns="http://www.w3.org/2000/svg" version="1.1" xmlns:xlink="http://www.w3.org/1999/xlink" xmlns:svgjs="http://svgjs.com/svgjs"><defs id="SvgjsDefs1002"></defs><g id="SvgjsG1008"><svg xmlns="http://www.w3.org/2000/svg" viewBox="0 0 796.908 797.158" width="288" height="288"><path fill-rule="evenodd" d="M 375 21.623 C 318.911 26.663, 275.696 38.517, 229.949 61.414 C 125.381 113.750, 50.574 212.273, 28.086 327.276 C 22.837 354.119, 21.546 368.481, 21.546 400 C 21.546 431.519, 22.837 445.881, 28.086 472.724 C 42.544 546.662, 78.714 614.551, 132.082 667.918 C 185.449 721.286, 253.338 757.456, 327.276 771.914 C 354.119 777.163, 368.481 778.454, 400 778.454 C 431.519 778.454, 445.881 777.163, 472.724 771.914 C 546.662 757.456, 614.551 721.286, 667.918 667.918 C 721.286 614.551, 757.456 546.662, 771.914 472.724 C 777.163 445.881, 778.454 431.519, 778.454 400 C 778.454 368.481, 777.163 354.119, 771.914 327.276 C 757.456 253.338, 721.286 185.449, 667.918 132.082 C 607.646 71.809, 529.427 33.870, 444 23.473 C 431.155 21.910, 385.449 20.684, 375 21.623 M 373.500 34.586 C 371.850 34.807, 365.550 35.480, 359.500 36.080 C 289.871 42.989, 218.913 73.654, 162.500 121.214 C 151.734 130.291, 128.561 153.548, 119.869 164 C 73.062 220.287, 44.806 286.029, 35.842 359.500 C 34.042 374.257, 34.042 425.743, 35.842 440.500 C 44.905 514.778, 73.626 581.054, 121.214 637.500 C 130.291 648.266, 153.548 671.439, 164 680.131 C 220.287 726.938, 286.029 755.194, 359.500 764.158 C 374.257 765.958, 425.743 765.958, 440.500 764.158 C 513.971 755.194, 579.713 726.938, 636 680.131 C 646.452 671.439, 669.709 648.266, 678.786 637.500 C 721.127 587.278, 748.728 528.910, 760.359 465 C 764.708 441.105, 765.500 431.086, 765.500 400 C 765.500 368.914, 764.708 358.895, 760.359 335 C 748.874 271.892, 721.718 214.010, 680.131 164 C 671.439 153.548, 648.266 130.291, 637.500 121.214 C 582.061 74.475, 517.450 46.040, 444.795 36.407 C 433.219 34.872, 381.246 33.544, 373.500 34.586 M 411.713 68.157 C 410.791 69.643, 408.886 82.178, 406.505 102.440 L 402.752 134.380 404.820 136.056 C 406.061 137.060, 409.769 138.014, 414.084 138.440 C 423.897 139.407, 424.058 139.195, 425.975 122.749 L 427.520 109.500 430.618 115 C 432.322 118.025, 436.266 125.312, 439.382 131.192 L 445.047 141.884 449.773 142.602 C 452.373 142.996, 457.200 143.360, 460.500 143.409 C 465.608 143.487, 466.480 143.242, 466.364 141.768 C 466.289 140.815, 461.863 132.323, 456.529 122.897 L 446.830 105.759 450.219 102.129 C 465.923 85.312, 474 76.006, 474 74.728 C 474 72.850, 471.760 72.289, 461 71.471 L 452.500 70.825 441 84.316 C 434.675 91.736, 429.390 97.703, 429.255 97.575 C 429.120 97.448, 429.679 91.979, 430.497 85.422 C 431.315 78.865, 431.988 72.723, 431.992 71.773 C 432.005 69.027, 428.059 67.242, 420.334 66.501 C 413.539 65.849, 413.093 65.935, 411.713 68.157 M 316.281 78.848 C 313.411 79.757, 310.557 81.013, 309.940 81.641 C 308.940 82.658, 300.102 147.407, 300.029 154.250 C 299.993 157.695, 301.504 157.772, 312.256 154.870 C 321.075 152.491, 322 151.408, 322 143.463 L 322 139.056 327.750 137.438 C 330.913 136.549, 335.704 135.191, 338.397 134.421 C 343.828 132.868, 343.591 132.737, 348.082 139.750 C 349.537 142.022, 350.930 143, 352.711 143 C 356.923 143, 370.858 138.813, 371.407 137.383 C 371.691 136.642, 361.656 122.963, 348.768 106.526 C 331.273 84.214, 325.115 77.024, 323.559 77.098 C 322.426 77.152, 319.151 77.939, 316.281 78.848 M 504.684 83.250 C 502.867 84.588, 477 142.715, 477 145.461 C 477 146.518, 479.696 148.379, 484.599 150.707 C 495.195 155.739, 495.964 155.346, 501.649 142 C 504.109 136.225, 506.447 131.170, 506.845 130.766 C 507.242 130.362, 512.341 132.114, 518.174 134.659 L 528.780 139.286 523.861 150.393 C 521.155 156.502, 519.067 162.400, 519.221 163.500 C 519.552 165.875, 531.007 171.940, 535.230 171.976 C 538.561 172.005, 538.124 172.827, 552.938 138.693 C 559.099 124.500, 564.220 111.675, 564.319 110.193 C 564.479 107.817, 563.735 107.120, 558 104.274 C 551.125 100.861, 546.887 100.188, 545.256 102.250 C 544.712 102.938, 542.336 108, 539.978 113.500 C 537.619 119, 535.421 123.793, 535.094 124.152 C 534.767 124.510, 529.720 122.709, 523.878 120.149 L 513.257 115.494 518.091 104.497 C 520.750 98.449, 522.942 92.782, 522.962 91.905 C 523.018 89.532, 520.062 87.291, 513.190 84.499 C 505.976 81.568, 506.804 81.689, 504.684 83.250 M 242.250 109.149 C 237.657 112.113, 236 113.774, 236 115.413 C 236 116.639, 241.639 126.737, 248.531 137.852 C 255.423 148.968, 261.324 159.368, 261.643 160.965 C 262.662 166.058, 255.336 170.977, 246.706 170.994 L 243.912 171 244.206 178.250 L 244.500 185.500 250.836 185.320 C 263.648 184.956, 279.149 174.682, 281.943 164.703 C 283.586 158.836, 282.757 151.990, 279.816 147.120 C 278.613 145.129, 272.269 134.838, 265.718 124.250 C 251.983 102.053, 252.616 102.460, 242.250 109.149 M 323.682 113.717 C 323.345 118.494, 323.265 122.598, 323.504 122.838 C 324.295 123.629, 334.126 120.460, 333.953 119.470 C 333.860 118.937, 331.649 115.470, 329.039 111.766 L 324.295 105.031 323.682 113.717 M 578.238 158.955 C 560.493 167.725, 545.707 175.599, 545.380 176.452 C 544.827 177.894, 549.936 183.229, 557.777 189.397 L 560.316 191.394 566.216 188.126 L 572.115 184.858 579.658 191.609 C 583.806 195.322, 587.402 198.883, 587.647 199.523 C 587.893 200.164, 587.183 202.998, 586.070 205.822 C 584.957 208.646, 584.297 211.529, 584.604 212.228 C 584.911 212.928, 588.324 216.167, 592.188 219.427 C 597.455 223.870, 599.587 225.119, 600.703 224.416 C 601.522 223.899, 607.425 207.556, 613.822 188.097 L 625.452 152.717 619.976 147.869 C 616.964 145.203, 613.600 143.019, 612.500 143.015 C 611.400 143.011, 595.982 150.184, 578.238 158.955 M 183.926 150.652 C 180.114 154.288, 178 157.109, 178 158.560 C 178 160.165, 182.753 165.409, 194.483 176.745 C 204.553 186.477, 211.502 194.003, 212.342 196.088 C 215.816 204.704, 206.075 214.744, 197.272 211.619 C 195.533 211.002, 186.706 203.437, 177.591 194.750 C 165.542 183.269, 160.404 179, 158.632 179 C 155.278 179, 145.771 189.358, 146.197 192.547 C 146.578 195.403, 178.867 226.370, 184.500 229.282 C 187.272 230.715, 190.501 231.373, 195.020 231.425 C 204.116 231.530, 212.629 227.289, 220.748 218.610 C 228.464 210.362, 231.332 204.436, 231.838 195.698 C 232.500 184.258, 231.368 182.476, 210.763 162.517 C 200.817 152.883, 192.043 145, 191.265 145 C 190.488 145, 187.185 147.543, 183.926 150.652 M 369.500 167.563 C 263.633 181.923, 181.411 264.465, 167.546 370.301 C 164.566 393.047, 165.912 427.093, 170.637 448.500 C 190.852 540.088, 259.912 609.148, 351.500 629.363 C 379.561 635.556, 420.439 635.556, 448.500 629.363 C 546.926 607.639, 619.457 528.914, 632.454 429.699 C 635.434 406.953, 634.088 372.907, 629.363 351.500 C 607.639 253.074, 528.914 180.543, 429.699 167.546 C 415.174 165.643, 383.586 165.652, 369.500 167.563 M 594 172.096 C 590.425 174.180, 587.050 176.101, 586.500 176.365 C 585.950 176.628, 587.471 178.751, 589.881 181.080 L 594.262 185.317 597.623 176.984 C 599.472 172.401, 600.876 168.574, 600.742 168.480 C 600.609 168.385, 597.575 170.013, 594 172.096 M 382.500 178.999 C 294.500 186.403, 218.844 244.980, 190.704 327.500 C 181.845 353.478, 178.746 372.267, 178.746 400 C 178.746 427.733, 181.845 446.522, 190.704 472.500 C 212.369 536.033, 263.967 587.631, 327.500 609.296 C 353.478 618.155, 372.267 621.254, 400 621.254 C 427.733 621.254, 446.522 618.155, 472.500 609.296 C 536.033 587.631, 587.631 536.033, 609.296 472.500 C 618.155 446.522, 621.254 427.733, 621.254 400 C 621.254 372.267, 618.155 353.478, 609.296 327.500 C 582.721 249.571, 513.311 192.385, 431 180.605 C 417.451 178.666, 395.207 177.930, 382.500 178.999 M 663.906 199.820 C 658.299 202.211, 608.959 234.552, 608.445 236.174 C 607.689 238.555, 632.501 278.690, 635.281 279.583 C 637.377 280.255, 645.485 275.783, 646.376 273.463 C 647.108 271.556, 645.890 269.104, 637.947 256.497 C 634.609 251.199, 632.018 246.455, 632.189 245.954 C 632.360 245.453, 642.400 238.797, 654.500 231.163 C 670.675 220.957, 676.585 216.714, 676.820 215.137 C 677.197 212.612, 670.678 201.433, 667.990 199.995 C 665.912 198.883, 666.087 198.890, 663.906 199.820 M 123.973 222.250 C 119.529 229.480, 117.668 234.248, 118.650 235.890 C 119.180 236.775, 124.614 240.084, 130.726 243.243 L 141.839 248.985 136.468 259.243 C 133.514 264.884, 130.738 269.500, 130.299 269.500 C 129.859 269.500, 124.646 267.038, 118.712 264.029 C 106.197 257.682, 106.110 257.694, 101.278 266.577 C 95.477 277.242, 93.976 275.714, 126.750 292.501 C 142.693 300.667, 156.825 307.287, 158.476 307.363 C 161.212 307.489, 161.759 306.898, 165.288 299.993 C 167.635 295.400, 168.870 291.825, 168.470 290.782 C 168.110 289.844, 162.794 286.523, 156.658 283.403 C 150.521 280.282, 145.384 277.636, 145.242 277.523 C 145.005 277.334, 154.837 258.079, 155.701 257.042 C 155.910 256.791, 160.794 258.928, 166.553 261.792 C 172.312 264.657, 178.088 267, 179.388 267 C 181.299 267, 182.460 265.653, 185.443 259.977 C 187.472 256.115, 188.991 251.952, 188.817 250.727 C 188.557 248.903, 183.249 245.838, 159.500 233.799 C 143.550 225.714, 129.481 219.076, 128.235 219.049 C 126.726 219.016, 125.304 220.085, 123.973 222.250 M 671.248 277.114 C 650.522 285.352, 640.666 289.755, 639.949 291.095 C 638.534 293.738, 644.621 308.303, 647.361 308.831 C 649.531 309.249, 707.654 286.467, 710.307 284.159 C 712.450 282.294, 712.111 280.407, 708.008 271.357 C 705.980 266.885, 704.588 265.013, 703.313 265.044 C 702.316 265.068, 687.887 270.500, 671.248 277.114 M 684.002 312.570 C 650.572 318.477, 650.384 318.549, 651.487 325 C 656.320 353.265, 659.348 362.641, 665.802 369.335 C 671.392 375.132, 676.290 377.259, 685.280 377.796 C 702.893 378.848, 718.334 372.107, 724.070 360.862 C 726.823 355.467, 728.037 345.341, 726.903 337.250 C 725.198 325.090, 721.974 309.673, 720.853 308.323 C 719.281 306.429, 717.769 306.603, 684.002 312.570 M 87.923 315.250 C 84.087 320.528, 82.387 324.521, 80.485 332.719 C 75.675 353.463, 83.403 366.913, 100.172 366.978 C 105.062 366.997, 106.441 366.546, 110.172 363.707 C 112.553 361.896, 116.843 357.058, 119.708 352.957 C 127.480 341.827, 129.097 339.900, 131.361 339.062 C 140.500 335.681, 140.659 351.156, 131.621 364.430 L 128.945 368.360 132.723 372.259 C 138.447 378.168, 139.460 378.477, 142.564 375.259 C 146.380 371.304, 151.506 359.782, 153.522 350.627 C 155.829 340.151, 155.127 332.358, 151.324 326.206 C 147.973 320.786, 144.062 318.244, 137.739 317.378 C 126.996 315.905, 122.429 318.956, 111.914 334.628 C 105.164 344.689, 102.805 346.708, 99.152 345.548 C 94.014 343.917, 94.507 332.741, 100.056 325.082 C 101.675 322.846, 103 320.621, 103 320.136 C 103 318.699, 94.176 311, 92.529 311 C 91.695 311, 89.622 312.913, 87.923 315.250 M 689.168 333.830 L 669.835 337.416 670.513 341.958 C 671.391 347.842, 673.192 352.026, 675.877 354.419 C 680.201 358.272, 695.199 357.452, 704.235 352.869 C 710.780 349.549, 712.249 345.375, 710.610 334.750 C 710.207 332.137, 709.568 330.055, 709.189 330.123 C 708.810 330.190, 699.800 331.859, 689.168 333.830 M 695.365 411.919 C 693.354 413.145, 691.663 415.385, 690.648 418.165 C 688.960 422.786, 686.460 441.793, 687.414 442.747 C 687.727 443.060, 687.571 443.812, 687.067 444.419 C 685.875 445.856, 679.857 471.897, 680.221 474.045 C 680.374 474.951, 679.996 476.324, 679.380 477.096 C 678.764 477.868, 677.711 480.205, 677.040 482.289 C 675.409 487.352, 676.309 488.273, 686.075 491.525 C 690.434 492.977, 694 494.485, 694 494.876 C 694 495.268, 688.803 496.856, 682.450 498.405 C 670.120 501.412, 668.670 502.402, 667.418 508.658 C 666.940 511.052, 667.207 511.868, 668.654 512.435 C 681.438 517.439, 703.132 525, 704.705 525 C 706.182 525, 707.193 523.784, 708.447 520.499 C 709.393 518.024, 709.990 515.470, 709.775 514.825 C 709.560 514.179, 705.022 512.018, 699.691 510.023 L 689.999 506.394 699.750 504.045 C 716.551 499.998, 715.676 500.417, 717.534 495.550 C 718.458 493.132, 718.948 490.725, 718.625 490.201 C 718.301 489.678, 710.822 486.649, 702.005 483.471 C 693.188 480.293, 686.104 477.562, 686.263 477.403 C 686.423 477.244, 693.291 478.656, 701.526 480.540 C 709.762 482.425, 717.482 483.974, 718.683 483.983 C 721.209 484.003, 721.019 484.504, 724.952 467.500 C 727.735 455.468, 727.835 454.407, 726.289 453.250 C 725.370 452.563, 723.371 452, 721.847 452 C 718.868 452, 718.926 451.873, 715.971 464.850 C 714.780 470.078, 714.684 470.187, 711.751 469.600 C 710.101 469.270, 708.397 469, 707.966 469 C 707.534 469, 707.810 466.637, 708.579 463.750 C 710.654 455.954, 710.486 455.228, 706.344 454.084 C 704.333 453.529, 702.328 453.297, 701.888 453.569 C 701.448 453.841, 700.560 456.749, 699.914 460.032 C 698.920 465.086, 698.415 465.998, 696.620 465.985 C 691.853 465.950, 691.487 464.814, 693.461 456.171 C 694.464 451.779, 695.010 447.468, 694.674 446.592 C 693.908 444.596, 693.837 444.595, 712.744 446.671 C 721.129 447.591, 728.282 448.052, 728.639 447.694 C 728.997 447.337, 729.511 444.736, 729.782 441.916 C 730.334 436.176, 729.473 435.050, 724.500 435.002 C 719.201 434.950, 716.868 433.914, 717.198 431.758 C 717.426 430.262, 719.215 429.242, 724.497 427.598 L 731.494 425.421 732.340 420.104 C 732.831 417.023, 732.808 414.408, 732.287 413.887 C 731.754 413.354, 728.385 414.008, 724.025 415.492 C 719.975 416.869, 716.574 417.884, 716.467 417.748 C 716.359 417.612, 715.724 416.449, 715.055 415.165 C 712.466 410.194, 701.231 408.342, 695.365 411.919 M 102 415.578 C 98.156 418.215, 97.268 419.687, 94.481 428.058 C 91.821 436.045, 89.766 438.195, 87.224 435.652 C 85.539 433.968, 85.349 431.426, 86.350 423.957 L 87.092 418.414 83.624 416.761 C 79.308 414.702, 78.416 415.552, 76.971 423.099 C 75.716 429.658, 76.619 438.232, 79.079 443.112 C 81.351 447.619, 86.735 450.421, 91.297 449.471 C 97.823 448.111, 98.884 446.632, 104.182 431.500 C 105.299 428.312, 106.078 427.500, 108.017 427.500 C 111.410 427.500, 112.782 431.635, 111.260 437.272 C 109.927 442.211, 110.764 443.603, 115.652 444.580 C 118.572 445.164, 118.859 444.958, 120.020 441.440 C 120.796 439.088, 121.050 435.135, 120.696 430.912 C 119.789 420.094, 116.200 415.091, 108.791 414.313 C 105.786 413.998, 103.751 414.377, 102 415.578 M 699.427 424.118 C 699.047 424.733, 698.404 426.708, 697.998 428.508 C 697.285 431.672, 697.380 431.800, 700.880 432.379 C 707.653 433.499, 708 433.344, 708 429.200 C 708 427.110, 707.460 424.860, 706.800 424.200 C 705.288 422.688, 700.345 422.633, 699.427 424.118 M 690.813 444.683 C 691.534 444.972, 692.397 444.936, 692.729 444.604 C 693.061 444.272, 692.471 444.036, 691.417 444.079 C 690.252 444.127, 690.015 444.364, 690.813 444.683 M 108.839 456.648 C 102.602 462.768, 96.600 468.023, 95.500 468.328 C 94.400 468.632, 91.588 469.375, 89.250 469.979 C 84.543 471.195, 84.140 472.364, 86.053 479.250 C 87.253 483.573, 88.717 483.892, 96.545 481.536 C 101.292 480.108, 101.735 480.167, 115.126 484.036 C 132.464 489.046, 132.415 489.045, 131.531 484.250 C 131.151 482.188, 130.314 479.408, 129.670 478.074 C 128.480 475.605, 127.950 475.358, 117.633 472.446 L 111.766 470.790 118.011 464.489 C 124.216 458.229, 124.251 458.160, 123.587 453.729 C 123.219 451.277, 122.301 448.427, 121.548 447.396 C 120.270 445.649, 119.408 446.277, 108.839 456.648 M 120.311 494.952 C 116.464 497.298, 115.013 501.719, 115.006 511.128 C 115 518.134, 113.730 520.478, 110.298 519.820 C 108.115 519.402, 106.133 514.023, 106.056 508.309 C 105.993 503.584, 105.864 503.440, 100.873 502.504 C 97.611 501.892, 97.200 502.065, 96.642 504.292 C 95.755 507.824, 97.777 517.632, 100.641 523.698 C 104.685 532.260, 111.895 535.191, 118.701 531.040 C 123.400 528.175, 125 524.292, 125 515.750 C 125 508.181, 125.932 506, 129.165 506 C 131.492 506, 132.969 508.941, 133.687 515.009 C 134.242 519.694, 134.458 519.995, 137.683 520.600 C 140.831 521.191, 140.974 521.372, 139.539 522.957 C 138.125 524.520, 138.211 525.098, 140.493 529.390 C 141.872 531.984, 143 534.284, 143 534.502 C 143 534.720, 136.925 538.327, 129.500 542.518 C 121.741 546.898, 116 550.764, 116 551.609 C 116 554.631, 120.029 561, 121.941 561 C 123.547 561, 134.316 555.273, 146.605 547.883 L 149.711 546.016 152.814 551.008 C 154.521 553.754, 156.511 556, 157.236 556 C 159.265 556, 163 553.057, 163 551.459 C 163 548.925, 146.636 520.718, 144.904 520.265 C 143.648 519.936, 143.124 518.386, 142.812 514.078 C 142.276 506.668, 137.892 497.515, 133.635 494.919 C 129.618 492.470, 124.361 492.483, 120.311 494.952 M 663.013 519.608 C 660.816 521.592, 657.612 526.075, 655.891 529.570 C 653.144 535.149, 652.812 536.709, 653.171 542.343 C 653.498 547.480, 654.149 549.507, 656.436 552.505 L 659.293 556.250 653.910 552.625 C 650.949 550.631, 647.794 549, 646.899 549 C 645.221 549, 640 555.671, 640 557.816 C 640 559.336, 672.849 581.216, 674.376 580.712 C 674.994 580.509, 676.809 578.485, 678.409 576.215 C 681.932 571.216, 681.892 571.151, 670.961 563.974 C 666.582 561.100, 663 558.570, 663 558.354 C 663 558.137, 664.688 558.804, 666.750 559.835 C 676.156 564.541, 683.074 563.324, 690.500 555.660 C 698.098 547.819, 702.313 534.299, 698.250 530.805 C 694.946 527.963, 682.224 521.700, 680.862 522.245 C 680.113 522.545, 677.700 526.236, 675.500 530.447 L 671.500 538.104 673.861 540.052 C 677.226 542.829, 679.697 542.486, 681.505 538.990 C 683.043 536.016, 683.098 535.999, 686.121 537.563 C 688.731 538.912, 689.083 539.539, 688.519 541.822 C 687.373 546.462, 683.145 550, 678.747 550 C 674.154 550, 671.637 548.836, 667.250 544.684 C 664.673 542.245, 664 540.806, 664 537.738 C 664 533.156, 665.166 530.635, 669.309 526.258 C 672.371 523.022, 672.374 523.008, 670.705 519.508 C 669.785 517.578, 668.576 516, 668.019 516 C 667.462 516, 665.209 517.623, 663.013 519.608 M 148.905 567.102 C 136.708 576.220, 132.915 579.568, 133.266 580.910 C 133.884 583.271, 149.144 603.742, 150.802 604.434 C 152.332 605.072, 156.594 602.501, 157.373 600.469 C 157.674 599.685, 155.503 595.875, 152.490 591.897 L 147.065 584.737 149.440 582.868 C 150.747 581.841, 152.231 581, 152.738 581 C 153.246 581, 155.115 583.025, 156.893 585.500 C 160.560 590.607, 162.643 591.073, 165.970 587.532 L 168.289 585.064 164.287 579.764 L 160.285 574.463 162.581 572.732 C 163.843 571.779, 165.311 571, 165.843 571 C 166.375 571, 169.146 574.150, 172 578 C 174.854 581.850, 177.674 585, 178.266 585 C 178.858 585, 180.278 584.232, 181.421 583.294 C 182.565 582.355, 177.313 587.874, 169.750 595.557 C 162.188 603.240, 156 609.994, 156 610.567 C 156 611.139, 157.555 613.115, 159.457 614.958 L 162.913 618.308 170.989 610.449 L 179.065 602.590 176.532 609.318 C 173.618 617.060, 173.417 619.272, 175.474 620.978 C 176.898 622.160, 179.657 621.516, 190.500 617.469 C 191.600 617.059, 189.238 620.059, 185.250 624.135 C 181.262 628.212, 178 632.011, 178 632.577 C 178 633.812, 184.225 640, 185.467 640 C 187.066 640, 214 612.618, 214 610.992 C 214 609.203, 208.020 603, 206.295 603 C 205.685 603, 200.375 605.016, 194.494 607.480 C 188.613 609.943, 184.021 611.406, 184.289 610.730 C 184.558 610.053, 186.697 604.869, 189.044 599.208 L 193.311 588.916 189.959 585.458 C 188.116 583.556, 186.021 582, 185.304 582 C 184.587 582, 184 581.181, 184 580.181 C 184 578.204, 168.289 556.427, 166.253 555.582 C 165.567 555.298, 157.760 560.482, 148.905 567.102 M 636.500 564.140 C 632.879 566.168, 626.865 572.434, 624.915 576.210 C 623.862 578.251, 623 581.929, 623 584.383 C 623 588.033, 623.560 589.406, 626.077 591.923 C 630.785 596.631, 635.327 596.472, 645.665 591.240 C 651.736 588.167, 653.071 587.814, 654.415 588.929 C 655.287 589.653, 656 590.849, 656 591.588 C 656 593.688, 650.329 599.621, 647.005 600.998 C 643.702 602.366, 643.473 603.189, 645.098 607.851 C 646.447 611.722, 647.412 611.759, 653.093 608.156 C 658.830 604.518, 664.492 597.897, 666.611 592.350 C 668.067 588.535, 668.101 587.553, 666.885 584.358 C 663.635 575.819, 656.557 574.478, 645.026 580.215 C 639.398 583.015, 637.219 583.652, 635.826 582.907 C 634.822 582.369, 634 581.225, 634 580.365 C 634 578.727, 639.169 573.271, 642.469 571.426 C 644.117 570.504, 644.251 569.865, 643.412 566.926 C 642.346 563.194, 639.929 562.220, 636.500 564.140 M 606.232 597.267 C 600.604 602.914, 596 608.207, 596 609.030 C 596 610.939, 623.414 638.369, 624.824 637.872 C 626.553 637.262, 643.992 620.942, 645.700 618.335 C 647.181 616.074, 647.136 615.774, 644.965 613.463 C 643.693 612.108, 641.954 611, 641.103 611 C 640.251 611, 636.818 613.711, 633.475 617.025 L 627.396 623.050 625.007 620.507 L 622.618 617.965 626.985 613.516 C 630.918 609.508, 631.241 608.824, 630.237 606.620 C 628.203 602.156, 625.286 602.303, 620.382 607.116 L 615.981 611.435 613.266 608.721 L 610.552 606.006 616.776 599.726 C 620.199 596.272, 623 592.896, 623 592.223 C 623 590.618, 619.351 587, 617.732 587 C 617.035 587, 611.860 591.620, 606.232 597.267 M 211.580 617.516 C 208.628 619.750, 206.014 624.223, 206.007 627.053 C 206.003 628.457, 207.810 633.349, 210.022 637.924 C 214.190 646.541, 214.183 649, 209.994 649 C 208.275 649, 203.032 643.838, 199.973 639.134 C 198.491 636.855, 198.338 636.832, 194.723 638.342 C 192.675 639.198, 191 640.380, 191 640.969 C 191 645.369, 202.314 656.809, 209.308 659.480 C 213.466 661.068, 214.414 661.114, 217.642 659.885 C 226.311 656.586, 227.546 649.564, 221.518 637.854 C 218.156 631.323, 217.776 629.975, 218.913 628.604 C 219.646 627.722, 220.910 627, 221.722 627 C 223.279 627, 228.773 632.243, 230.540 635.415 C 231.487 637.115, 231.911 637.161, 235.290 635.940 C 237.331 635.202, 239 633.991, 239 633.249 C 239 629.269, 231.607 620.916, 225.109 617.557 C 221.351 615.613, 214.124 615.591, 211.580 617.516 M 588.500 616.925 C 586.850 617.332, 584.130 618.380, 582.455 619.253 C 578.083 621.531, 565 631.928, 565 633.123 C 565 633.678, 570.288 641.055, 576.750 649.517 C 584.935 660.234, 589.114 664.917, 590.525 664.951 C 593.515 665.023, 609.226 651.847, 611.276 647.548 C 613.362 643.173, 613.504 636.141, 611.597 631.578 C 609.882 627.472, 603.572 620.341, 600.075 618.556 C 596.420 616.689, 591.987 616.065, 588.500 616.925 M 583.223 630.132 C 581.082 631.503, 580.246 632.624, 580.812 633.365 C 591.139 646.901, 594.450 651, 595.058 651 C 596.426 651, 602 643.942, 601.996 642.215 C 601.992 640.073, 598.621 634.378, 595.211 630.750 C 592.046 627.383, 587.853 627.167, 583.223 630.132 M 250.214 642.250 C 243.733 653.055, 232.877 674.237, 233.280 675.288 C 233.814 676.680, 257.577 690, 259.526 690 C 260.960 690, 264 685.724, 264 683.707 C 264 682.957, 260.456 680.364, 256.124 677.945 L 248.249 673.546 249.786 670.323 L 251.323 667.100 257.186 670.300 L 263.050 673.500 265.003 671 C 268.103 667.031, 267.477 665.420, 261.509 662.005 L 256.019 658.864 257.535 655.932 C 258.369 654.319, 259.302 653, 259.608 653 C 259.914 653, 263.745 654.913, 268.122 657.250 C 275.974 661.443, 276.102 661.473, 277.675 659.500 C 279.608 657.075, 279.696 656.817, 272.111 675.764 C 268.750 684.159, 266 691.648, 266 692.405 C 266 693.865, 272.760 697, 275.908 697 C 277.316 697, 278.578 694.972, 281.041 688.750 C 282.837 684.212, 284.602 680.158, 284.962 679.741 C 285.323 679.323, 286.665 683.823, 287.944 689.741 C 289.222 695.658, 290.867 701.472, 291.599 702.661 C 293.135 705.156, 299.716 707.684, 301.093 706.307 C 302.272 705.128, 316 671.014, 316 669.263 C 316 667.744, 307.263 663.685, 305.472 664.372 C 304.825 664.621, 302.810 668.576, 300.995 673.162 C 299.179 677.748, 297.425 681.813, 297.097 682.196 C 296.769 682.579, 295.171 677.230, 293.546 670.310 C 290.635 657.912, 290.541 657.706, 287.144 656.287 C 285.248 655.494, 282.903 655.054, 281.934 655.307 C 280.872 655.585, 279.996 655.119, 279.729 654.134 C 279.304 652.569, 255.592 639, 253.281 639 C 252.666 639, 251.286 640.462, 250.214 642.250 M 535.453 648.326 C 526.877 651.630, 520.996 657.854, 521.004 663.618 C 521.008 667.142, 524.454 673.045, 526.877 673.678 C 528.367 674.068, 528.583 674.984, 528.219 679.367 C 527.843 683.904, 528.134 685.005, 530.426 687.729 C 535.453 693.704, 542.936 694.198, 552.333 689.175 C 561.678 684.180, 565.653 676.250, 562.795 668.303 C 561.444 664.545, 561.414 663.779, 562.599 663.324 C 565.364 662.263, 562.967 655, 559.852 655 C 558.846 655, 553.355 657.322, 547.649 660.160 C 537.175 665.369, 534 665.841, 534 662.186 C 534 659.383, 537.180 657.035, 542.110 656.199 C 546.419 655.468, 546.506 655.377, 546.807 651.227 L 547.115 647 542.807 647.076 C 540.438 647.118, 537.129 647.680, 535.453 648.326 M 494.500 666.665 C 487.001 668.514, 473 673.229, 473 673.904 C 473 674.354, 471.974 674.526, 470.720 674.287 C 467.598 673.690, 441.585 678.758, 441.153 680.047 C 440.932 680.705, 440.385 680.740, 439.653 680.141 C 438.180 678.938, 410.987 680.797, 409.250 682.221 C 408.387 682.928, 407.560 682.879, 406.578 682.064 C 405.782 681.404, 403.029 681.020, 400.328 681.192 L 395.500 681.500 394.776 690.923 C 394.377 696.105, 393.927 700.685, 393.776 701.100 C 393.624 701.514, 390.516 697.049, 386.869 691.177 L 380.237 680.500 375.465 680.189 C 372.327 679.984, 370.409 680.327, 369.862 681.189 C 369.225 682.194, 369.027 682.116, 369.015 680.857 C 368.996 678.768, 366.965 678, 361.464 678 C 356.398 678, 357.346 675.257, 353.513 700.993 C 350.734 719.652, 350.667 719.374, 358.257 720.450 C 362.094 720.994, 363.132 720.819, 363.622 719.543 C 363.956 718.673, 365.271 710.882, 366.544 702.230 L 368.859 686.500 368.395 699 C 368.139 705.875, 367.722 713.300, 367.467 715.500 C 366.860 720.738, 367.612 721.680, 373 722.430 C 379.764 723.372, 380.289 722.621, 380.936 711.076 L 381.500 701 387.835 711.448 C 391.319 717.194, 394.773 722.397, 395.511 723.009 C 396.249 723.621, 398.798 723.982, 401.176 723.811 L 405.500 723.500 406.289 710.500 C 407.810 685.442, 408.227 684.688, 409.652 704.423 C 410.364 714.281, 411.296 722.695, 411.723 723.120 C 412.467 723.861, 439.100 722.397, 441.811 721.466 C 442.660 721.174, 443.012 719.693, 442.811 717.258 L 442.500 713.500 432.749 713.500 L 422.997 713.500 422.999 709.798 L 423 706.095 429.250 705.798 L 435.500 705.500 435.500 701 L 435.500 696.500 428.869 696.830 L 422.237 697.159 421.832 693.686 C 421.432 690.257, 421.482 690.206, 425.853 689.607 C 428.287 689.273, 432.093 689, 434.311 689 C 436.528 689, 439.083 688.329, 439.989 687.510 C 441.502 686.140, 441.865 687.315, 444.475 702.034 C 446.037 710.842, 447.806 718.680, 448.407 719.452 C 449.338 720.647, 451.505 720.495, 463 718.430 C 470.425 717.096, 477.063 715.793, 477.750 715.534 C 479.652 714.817, 479.337 708.066, 477.366 707.310 C 476.467 706.965, 472.144 707.266, 467.759 707.978 C 459.118 709.381, 458.048 708.985, 458.015 704.364 C 458.003 702.578, 458.780 702.110, 462.750 701.515 C 465.363 701.123, 468.288 700.381, 469.250 699.866 C 471.313 698.762, 471.538 695.118, 469.699 692.604 C 468.540 691.018, 467.760 690.943, 462.509 691.914 C 456.119 693.095, 455.045 692.577, 455.015 688.295 C 455.003 686.524, 455.737 685.965, 458.750 685.452 C 469.575 683.608, 472.411 682.537, 472.987 680.074 C 473.397 678.324, 475.057 682.572, 478.946 695.324 C 484.884 714.791, 484.362 714.138, 492.250 711.947 C 496.572 710.747, 496.965 708.987, 494.481 701.946 C 493.268 698.507, 493.217 697.479, 494.231 696.836 C 496.117 695.639, 497.800 695.831, 498.700 697.346 C 499.140 698.086, 501.154 700.603, 503.175 702.939 L 506.851 707.185 512.425 705.565 C 515.491 704.673, 518 703.366, 518 702.659 C 518 701.952, 516.609 700.052, 514.909 698.437 C 513.208 696.822, 510.930 694.266, 509.846 692.758 C 508.033 690.235, 508 689.838, 509.438 687.786 C 511.381 685.011, 511.464 677.793, 509.595 674.200 C 506.550 668.348, 500.308 665.232, 494.500 666.665 M 544.750 672.566 C 541.194 674.417, 540 675.612, 540 677.319 C 540 680.078, 541.745 682, 544.250 682 C 546.716 682, 551.641 679.397, 552.221 677.787 C 552.799 676.180, 551.199 669.983, 550.221 670.047 C 549.825 670.072, 547.362 671.206, 544.750 672.566 M 327.500 671.492 C 326.950 671.675, 325.297 672.089, 323.827 672.412 C 312.889 674.815, 306.045 694.454, 312.297 705.500 C 315.511 711.180, 324.949 715.896, 334.500 716.595 C 344.889 717.356, 345.971 716.498, 348.905 705.168 C 351.782 694.059, 351.763 694.024, 341.251 691.515 C 332.946 689.533, 331.518 689.801, 330.586 693.515 C 329.765 696.784, 331.165 698.658, 335.068 699.515 C 337.645 700.081, 337.921 700.480, 337.361 702.829 C 336.363 707.010, 335.994 707.263, 331.718 706.689 C 325.704 705.882, 322.480 702.193, 322.575 696.226 C 322.678 689.744, 325.356 684.534, 329.624 682.508 C 333.736 680.557, 337.644 681.129, 343.604 684.555 L 347.709 686.914 350.535 683.964 L 353.361 681.013 351.016 678.517 C 349.726 677.144, 346.382 675.177, 343.585 674.147 C 338.640 672.324, 329.518 670.819, 327.500 671.492 M 489.750 677.668 C 487.724 678.222, 487.628 679.122, 489.053 684.250 C 490.209 688.415, 490.830 688.656, 494.928 686.537 C 498.450 684.716, 499.164 682.966, 497.640 679.893 C 496.463 677.520, 493.427 676.664, 489.750 677.668" transform="translate(-1.546 -1.296)" fill="#ffffff" class="color000 svgShape"></path></svg></g></svg>